<?xml version="1.0" encoding="UTF-8"?><svg id="Layer_2" xmlns="http://www.w3.org/2000/svg" viewBox="0 0 603.3 153.5"><defs><style>.cls-1{fill:#00743c;}.cls-2{fill:#231f20;}</style></defs><g id="Layer_1-2"><g><g><path class="cls-2" d="m150.2,16.5h-42.1l5.5,28.3c7.2,7.2,11.6,17.2,11.6,28.1,0,5.5-1.1,10.7-3.1,15.5l2.7,13.5,13.2,13.2-8.9,8.9,1,5h25.3V21.6c0-2.8-2.3-5.1-5.2-5.1Zm-4.9,98.8c0,1.8-1.5,3.4-3.4,3.4-1.8,0-3.4-1.5-3.4-3.4v-55.8c0-1.8,1.5-3.4,3.4-3.4,1.8,0,3.4,1.5,3.4,3.4v55.8Z"/><path class="cls-2" d="m123.3,129.1H48.5l6-31.1c7.3,9,18.4,14.8,30.9,14.8,8.5,0,16.4-2.7,22.9-7.3l12.8,12.8,2.2,10.8Z"/><path class="cls-2" d="m104.4,72.9c0,10.4-8.4,18.8-18.8,18.8s-18.8-8.4-18.8-18.8,8.4-18.8,18.8-18.8c10.3,0,18.8,8.5,18.8,18.8Z"/><path class="cls-2" d="m98.1,0h-24.5l-7.4,38c5.7-3.2,12.3-5,19.3-5s14.2,2,20.1,5.5L98.1,0Zm-7.2,12.5h-10c-1.8,0-3.4-1.5-3.4-3.4,0-1.8,1.5-3.4,3.4-3.4h10c1.8,0,3.4,1.5,3.4,3.4s-1.6,3.4-3.4,3.4Z"/><path class="cls-2" d="m46.1,16.5c.2,1.1.2,2.2.2,3.4,0,14.6-11.9,26.6-26.6,26.6-1.4,0-2.8-.1-4.1-.4v82.9h26l7.7-39.6c-2.3-5.1-3.7-10.6-3.7-16.5,0-11.4,4.8-21.7,12.5-28.9l5.4-27.5h-17.4Zm-17.1,102.2c-1.8,0-3.4-1.5-3.4-3.4v-55.8c0-1.8,1.5-3.4,3.4-3.4,1.8,0,3.4,1.5,3.4,3.4v55.8c0,1.9-1.5,3.4-3.4,3.4Z"/><path class="cls-1" d="m116.4,135.9v17.5h33.8c2.9,0,5.2-2.3,5.2-5.2v-12.3h-39Z"/><path class="cls-1" d="m15.6,135.9v5.4h39.2c1.8,0,3.4,1.5,3.4,3.4,0,1.8-1.5,3.4-3.4,3.4H15.6v.2c0,2.9,2.3,5.2,5.2,5.2h88.8v-17.5l-94-.1Z"/><path class="cls-1" d="m130.7,4.3h16.1v5.4h-16.1v-5.4h0Z"/><path class="cls-1" d="m38.8,14C36.3,5.6,28.6,0,19.8,0,8.8,0,0,8.9,0,19.8c0,8.5,5.4,16.1,13.4,18.8,2.1.7,4.2,1.1,6.4,1.1,11,0,19.8-8.9,19.8-19.8,0-1.9-.3-3.9-.8-5.9Zm-19.1-1.5c-4.1,0-7.3,3.3-7.3,7.3,0,1.8-1.5,3.4-3.4,3.4-1.8,0-3.4-1.5-3.4-3.4,0-7.8,6.3-14.1,14.1-14.1,1.8,0,3.4,1.5,3.4,3.4s-1.5,3.4-3.4,3.4Z"/><path class="cls-1" d="m85.5,54.1c-10.4,0-18.8,8.4-18.8,18.8s8.4,18.8,18.8,18.8,18.8-8.4,18.8-18.8c.1-10.3-8.4-18.8-18.8-18.8Zm0,0c-10.4,0-18.8,8.4-18.8,18.8s8.4,18.8,18.8,18.8,18.8-8.4,18.8-18.8c.1-10.3-8.4-18.8-18.8-18.8Z"/><path class="cls-1" d="m112.7,89.9c3.2-5.1,5-11,5-17.1,0-17.7-14.4-32-32-32s-32,14.4-32,32,14.4,32,32,32c6.1,0,12-1.7,17.1-5l18.4,18.4,7,7,1.1-1.1,8.9-8.9-25.5-25.3Zm15.4,26.9l-24.7-24.6-2.6,1.8c-4.4,3.2-9.7,4.9-15.2,4.9-14.4,0-26-11.7-26-26s11.7-26,26-26,26,11.7,26,26c0,5.5-1.7,10.7-4.9,15.2l-1.8,2.6,24.6,24.6-1.4,1.5Z"/></g><g><path d="m223.1,56.1c-.7-1.7-1.7-3.2-3.3-4.7-2.3-1.9-4.8-2.7-8-2.7-6.9,0-10.5,4.1-10.5,8.9,0,2.2.8,6.1,8,9l7.5,3c13.7,5.6,17.5,13.4,17.5,21.8,0,14.1-10,23.8-23.9,23.8-8.6,0-13.7-3.2-17.5-7.5-4-4.5-5.8-9.4-6.2-14.5l11.2-2.5c0,3.7,1.3,7.1,3.1,9.5,2.1,2.7,5.2,4.5,9.7,4.5,6.9,0,12.3-5,12.3-12.5s-5.8-10.7-10.7-12.7l-7.1-3c-6.1-2.6-15.1-7.7-15.1-18.8,0-10,7.8-19.6,21.7-19.6,8,0,12.6,3,14.9,5,2,1.8,4.1,4.3,5.7,7.5l-9.3,5.5Z"/><path d="m246.4,67h10.9v4.3c3.7-4.5,8-5.6,11.6-5.6,4.9,0,9.5,2.3,12.1,6.9,3.9-5.6,9.8-6.9,13.9-6.9,5.7,0,10.7,2.7,13.4,7.4.9,1.6,2.5,5,2.5,11.8v29h-10.9v-25.8c0-5.2-.6-7.4-1-8.4-.7-1.8-2.3-4.1-6.2-4.1-2.7,0-5,1.4-6.5,3.5-1.9,2.7-2.1,6.7-2.1,10.7v24.2h-10.9v-25.8c0-5.2-.6-7.4-1-8.4-.7-1.8-2.3-4.1-6.2-4.1-2.7,0-5,1.4-6.5,3.5-1.9,2.7-2.1,6.7-2.1,10.7v24.2h-10.9v-47.1h-.1Z"/><path d="m358.9,67h10.9v46.9h-10.9v-4.9c-4.8,5.6-10.7,6.3-14,6.3-14.5,0-22.7-12-22.7-24.9,0-15.3,10.5-24.6,22.8-24.6,3.5,0,9.5.9,13.9,6.7v-5.5h0Zm-25.6,23.6c0,8.1,5.1,14.9,13,14.9,6.9,0,13.3-5,13.3-14.8s-6.3-15.1-13.3-15.1c-7.9,0-13,6.7-13,15Z"/><path d="m383.7,67h10.9v4.2c1.2-1.4,3-3,4.6-3.9,2.1-1.2,4.2-1.6,6.7-1.6,2.7,0,5.6.4,8.6,2.2l-4.5,9.9c-2.5-1.6-4.5-1.7-5.6-1.7-2.3,0-4.7.3-6.8,2.6-3,3.2-3,7.7-3,10.8v24.3h-10.9v-46.8h0Z"/><path d="m434.1,77.1v36.9h-10.9v-36.9h-4.6v-10h4.6v-17.2h10.9v17.2h8.4v10h-8.4Z"/><path class="cls-1" d="m483.9,56.1c-.7-1.7-1.7-3.2-3.3-4.7-2.3-1.9-4.8-2.7-8-2.7-6.9,0-10.5,4.1-10.5,8.9,0,2.2.8,6.1,8,9l7.5,3c13.7,5.6,17.5,13.4,17.5,21.8,0,14.1-10,23.8-23.9,23.8-8.6,0-13.7-3.2-17.5-7.5-4-4.5-5.8-9.4-6.2-14.5l11.2-2.5c0,3.7,1.3,7.1,3.1,9.5,2.1,2.7,5.2,4.5,9.7,4.5,6.9,0,12.3-5,12.3-12.5s-5.8-10.7-10.7-12.7l-7.1-3c-6.1-2.6-15.1-7.7-15.1-18.8,0-10,7.8-19.6,21.7-19.6,8,0,12.6,3,14.9,5,2,1.8,4.1,4.3,5.7,7.5l-9.3,5.5Z"/><path class="cls-1" d="m549.3,103.2c-2,3.6-4.9,6.7-7.9,8.6-3.8,2.5-8.8,3.6-13.8,3.6-6.2,0-11.4-1.6-15.8-6-4.5-4.5-6.9-10.9-6.9-17.9s2.6-14.3,7.5-19.3c3.9-3.9,9-6.3,15.7-6.3,7.5,0,12.3,3.2,15,6.1,6,6.2,6.6,14.9,6.6,19.8v1.3h-33.6c.2,3.3,1.7,7.1,4,9.5,2.6,2.6,5.7,3,8.4,3,3,0,5.2-.7,7.5-2.3,1.9-1.4,3.3-3.3,4.3-5.1l9,5Zm-10.8-19c-.4-2.6-1.7-4.8-3.3-6.3-1.4-1.3-3.8-2.7-7.4-2.7-3.8,0-6.2,1.6-7.7,3-1.6,1.4-2.8,3.7-3.3,6h21.7Z"/><path class="cls-1" d="m602.9,103.2c-2,3.6-4.9,6.7-7.9,8.6-3.8,2.5-8.8,3.6-13.8,3.6-6.2,0-11.4-1.6-15.8-6-4.5-4.5-6.9-10.9-6.9-17.9s2.6-14.3,7.5-19.3c3.9-3.9,9-6.3,15.7-6.3,7.5,0,12.3,3.2,15,6.1,6,6.2,6.6,14.9,6.6,19.8v1.3h-33.6c.2,3.3,1.7,7.1,4,9.5,2.6,2.6,5.7,3,8.4,3,3,0,5.2-.7,7.5-2.3,1.9-1.4,3.3-3.3,4.3-5.1l9,5Zm-10.8-19c-.4-2.6-1.7-4.8-3.3-6.3-1.4-1.3-3.8-2.7-7.4-2.7-3.8,0-6.2,1.6-7.7,3-1.6,1.4-2.8,3.7-3.3,6h21.7Z"/></g></g></g></svg>