<?xml version="1.0" encoding="UTF-8"?><svg id="Layer_2" xmlns="http://www.w3.org/2000/svg" viewBox="0 0 416.6 356.3"><defs><style>.cls-1{fill:#00743c;}.cls-2{fill:#231f20;}</style></defs><g id="Layer_1-2"><g><g><path class="cls-2" d="m311,27.9h-71.2l9.3,47.9c12.2,12.2,19.7,29.1,19.7,47.6,0,9.3-1.9,18.2-5.3,26.3l4.5,22.9,22.4,22.4-15.1,15.1,1.7,8.4h42.8V36.6c0-4.8-3.9-8.7-8.8-8.7Zm-8.2,167.3c0,3.1-2.6,5.7-5.7,5.7s-5.7-2.6-5.7-5.7v-94.4c0-3.1,2.6-5.7,5.7-5.7s5.7,2.6,5.7,5.7v94.4Z"/><path class="cls-2" d="m265.4,218.5h-126.5l10.2-52.7c12.4,15.2,31.2,25.1,52.4,25.1,14.4,0,27.7-4.5,38.7-12.3l21.6,21.6,3.6,18.3Z"/><path class="cls-2" d="m233.4,123.5c0,17.6-14.3,31.9-31.9,31.9s-31.9-14.3-31.9-31.9,14.3-31.9,31.9-31.9,31.9,14.3,31.9,31.9Z"/><path class="cls-2" d="m222.8,0h-41.4l-12.5,64.4c9.7-5.4,20.8-8.5,32.6-8.5,12.4,0,24,3.4,34,9.3L222.8,0Zm-12.2,21.2h-17c-3.1,0-5.7-2.6-5.7-5.7s2.6-5.7,5.7-5.7h17c3.1,0,5.7,2.6,5.7,5.7s-2.6,5.7-5.7,5.7Z"/><path class="cls-2" d="m134.8,27.9c.3,1.9.4,3.8.4,5.8,0,24.8-20.2,45.1-45.1,45.1-2.3,0-4.7-.2-7-.6v140.4h44l13.1-67c-3.9-8.6-6.2-18-6.2-28,0-19.3,8.2-36.7,21.2-49l9.1-46.6h-29.5v-.1Zm-28.9,173c-3.1,0-5.7-2.6-5.7-5.7v-94.4c0-3.1,2.6-5.7,5.7-5.7s5.7,2.6,5.7,5.7v94.4c0,3.2-2.5,5.7-5.7,5.7Z"/><path class="cls-1" d="m253.8,230v29.7h57.2c4.9,0,8.8-3.9,8.8-8.8v-20.8l-66-.1h0Z"/><path class="cls-1" d="m83.2,230v9.1h66.4c3.1,0,5.7,2.6,5.7,5.7s-2.6,5.7-5.7,5.7h-66.4v.3c0,4.9,3.9,8.8,8.8,8.8h150.4v-29.7l-159.2.1Z"/><path class="cls-1" d="m278,7.3h27.2v9.1h-27.2V7.3h0Z"/><path class="cls-1" d="m122.4,23.7C118.1,9.5,105.1,0,90.2,0c-18.6,0-33.6,15.1-33.6,33.6,0,14.4,9.1,27.2,22.7,31.8,3.5,1.2,7.1,1.8,10.9,1.8,18.6,0,33.6-15.1,33.6-33.6,0-3.2-.5-6.5-1.4-9.9Zm-32.3-2.5c-6.9,0-12.4,5.6-12.4,12.4,0,3.1-2.6,5.7-5.7,5.7s-5.7-2.6-5.7-5.7c0-13.2,10.7-23.9,23.9-23.9,3.1,0,5.7,2.6,5.7,5.7s-2.6,5.8-5.8,5.8Z"/><path class="cls-1" d="m201.5,91.6c-17.6,0-31.9,14.3-31.9,31.9s14.3,31.9,31.9,31.9,31.9-14.3,31.9-31.9-14.3-31.9-31.9-31.9Zm0,0c-17.6,0-31.9,14.3-31.9,31.9s14.3,31.9,31.9,31.9,31.9-14.3,31.9-31.9-14.3-31.9-31.9-31.9Z"/><path class="cls-1" d="m247.6,152.2c5.5-8.6,8.4-18.6,8.4-28.9,0-29.9-24.3-54.2-54.2-54.2s-54.2,24.3-54.2,54.2,24.3,54.2,54.2,54.2c10.3,0,20.3-2.9,28.9-8.4l31.1,31.1,11.8,11.8,1.8-1.8,15.1-15.1-42.9-42.9Zm26,45.5l-41.8-41.7-4.4,3.1c-7.5,5.4-16.4,8.3-25.7,8.3-24.4,0-44.1-19.8-44.1-44.1s19.8-44.1,44.1-44.1,44.1,19.8,44.1,44.1c0,9.3-2.9,18.1-8.3,25.7l-3.1,4.4,41.7,41.7-2.5,2.6Z"/></g><g><path d="m36.4,297c-.7-1.7-1.7-3.2-3.3-4.7-2.3-1.9-4.8-2.7-8-2.7-6.9,0-10.5,4.1-10.5,8.9,0,2.2.8,6.1,8,9l7.5,3c13.7,5.6,17.5,13.4,17.5,21.8,0,14.1-10,23.8-23.9,23.8-8.6,0-13.7-3.2-17.5-7.5-4-4.5-5.8-9.4-6.2-14.5l11.2-2.5c0,3.7,1.3,7.1,3.1,9.5,2.1,2.7,5.2,4.5,9.7,4.5,6.9,0,12.3-5,12.3-12.5s-5.8-10.7-10.7-12.7l-7.1-3c-6.1-2.6-15.1-7.7-15.1-18.8,0-10,7.8-19.6,21.7-19.6,8,0,12.6,3,14.9,5,2,1.8,4.1,4.3,5.7,7.5l-9.3,5.5Z"/><path d="m59.7,307.9h10.9v4.3c3.7-4.5,8-5.6,11.6-5.6,4.9,0,9.5,2.3,12.1,6.9,3.9-5.6,9.8-6.9,13.9-6.9,5.7,0,10.7,2.7,13.4,7.4.9,1.6,2.5,5,2.5,11.8v29h-10.9v-25.8c0-5.2-.6-7.4-1-8.4-.7-1.8-2.3-4.1-6.2-4.1-2.7,0-5,1.4-6.5,3.5-1.9,2.7-2.1,6.7-2.1,10.7v24.2h-10.9v-25.8c0-5.2-.6-7.4-1-8.4-.7-1.8-2.3-4.1-6.2-4.1-2.7,0-5,1.4-6.5,3.5-1.9,2.7-2.1,6.7-2.1,10.7v24.2h-10.9v-47.1h-.1Z"/><path d="m172.2,307.9h10.9v46.9h-10.9v-4.9c-4.8,5.6-10.7,6.3-14,6.3-14.5,0-22.7-12-22.7-24.9,0-15.3,10.5-24.6,22.8-24.6,3.5,0,9.5.9,13.9,6.7v-5.5h0Zm-25.6,23.6c0,8.1,5.1,14.9,13,14.9,6.9,0,13.3-5,13.3-14.8s-6.3-15.1-13.3-15.1c-7.9,0-13,6.7-13,15Z"/><path d="m197,307.9h10.9v4.2c1.2-1.4,3-3,4.6-3.9,2.1-1.2,4.2-1.6,6.7-1.6,2.7,0,5.6.4,8.6,2.2l-4.5,9.9c-2.5-1.6-4.5-1.7-5.6-1.7-2.3,0-4.7.3-6.8,2.6-3,3.2-3,7.7-3,10.8v24.3h-10.9v-46.8h0Z"/><path d="m247.4,318v36.9h-10.9v-36.9h-4.6v-10h4.6v-17.2h10.9v17.2h8.4v10h-8.4Z"/><path class="cls-1" d="m297.2,297c-.7-1.7-1.7-3.2-3.3-4.7-2.3-1.9-4.8-2.7-8-2.7-6.9,0-10.5,4.1-10.5,8.9,0,2.2.8,6.1,8,9l7.5,3c13.7,5.6,17.5,13.4,17.5,21.8,0,14.1-10,23.8-23.9,23.8-8.6,0-13.7-3.2-17.5-7.5-4-4.5-5.8-9.4-6.2-14.5l11.2-2.5c0,3.7,1.3,7.1,3.1,9.5,2.1,2.7,5.2,4.5,9.7,4.5,6.9,0,12.3-5,12.3-12.5s-5.8-10.7-10.7-12.7l-7.1-3c-6.1-2.6-15.1-7.7-15.1-18.8,0-10,7.8-19.6,21.7-19.6,8,0,12.6,3,14.9,5,2,1.8,4.1,4.3,5.7,7.5l-9.3,5.5Z"/><path class="cls-1" d="m362.6,344.1c-2,3.6-4.9,6.7-7.9,8.6-3.8,2.5-8.8,3.6-13.8,3.6-6.2,0-11.4-1.6-15.8-6-4.5-4.5-6.9-10.9-6.9-17.9s2.6-14.3,7.5-19.3c3.9-3.9,9-6.3,15.7-6.3,7.5,0,12.3,3.2,15,6.1,6,6.2,6.6,14.9,6.6,19.8v1.3h-33.6c.2,3.3,1.7,7.1,4,9.5,2.6,2.6,5.7,3,8.4,3,3,0,5.2-.7,7.5-2.3,1.9-1.4,3.3-3.3,4.3-5.1l9,5Zm-10.8-19c-.4-2.6-1.7-4.8-3.3-6.3-1.4-1.3-3.8-2.7-7.4-2.7-3.8,0-6.2,1.6-7.7,3-1.6,1.4-2.8,3.7-3.3,6h21.7Z"/><path class="cls-1" d="m416.2,344.1c-2,3.6-4.9,6.7-7.9,8.6-3.8,2.5-8.8,3.6-13.8,3.6-6.2,0-11.4-1.6-15.8-6-4.5-4.5-6.9-10.9-6.9-17.9s2.6-14.3,7.5-19.3c3.9-3.9,9-6.3,15.7-6.3,7.5,0,12.3,3.2,15,6.1,6,6.2,6.6,14.9,6.6,19.8v1.3h-33.6c.2,3.3,1.7,7.1,4,9.5,2.6,2.6,5.7,3,8.4,3,3,0,5.2-.7,7.5-2.3,1.9-1.4,3.3-3.3,4.3-5.1l9,5Zm-10.8-19c-.4-2.6-1.7-4.8-3.3-6.3-1.4-1.3-3.8-2.7-7.4-2.7-3.8,0-6.2,1.6-7.7,3-1.6,1.4-2.8,3.7-3.3,6h21.7Z"/></g></g></g></svg>