<?xml version="1.0" encoding="UTF-8"?><svg id="Layer_2" xmlns="http://www.w3.org/2000/svg" viewBox="0 0 445.87 439.6"><defs><style>.cls-1{fill:#00743c;}.cls-2{fill:#231f20;}</style></defs><g id="Layer_1-2"><g><path class="cls-2" d="m431,47.07h-120.56l15.85,81.11c20.65,20.65,33.43,49.16,33.43,80.62,0,15.85-3.2,30.85-8.97,44.49l7.62,38.71,37.85,38.1-25.69,25.69,2.83,14.13h72.51V61.94c0-8.23-6.76-14.87-14.87-14.87Zm-13.89,283.4c0,5.28-4.3,9.71-9.71,9.71s-9.71-4.3-9.71-9.71v-159.77c0-5.28,4.3-9.71,9.71-9.71s9.71,4.3,9.71,9.71v159.77Z"/><path class="cls-2" d="m353.57,369.92h-214.21l17.33-89.22c20.89,25.81,52.97,42.4,88.73,42.4,24.33,0,46.95-7.62,65.5-20.77l36.62,36.62,6.02,30.97Z"/><path class="cls-2" d="m299.5,208.92c0,29.74-24.21,53.95-53.95,53.95s-53.95-24.21-53.95-53.95,24.21-53.95,53.95-53.95,53.95,24.21,53.95,53.95Z"/><path class="cls-2" d="m281.56,0h-70.05l-21.26,109.01c16.35-9.09,35.27-14.38,55.3-14.38,21.02,0,40.68,5.78,57.64,15.73L281.56,0Zm-20.65,35.76h-28.76c-5.28,0-9.71-4.3-9.71-9.71s4.3-9.71,9.71-9.71h28.76c5.28,0,9.71,4.3,9.71,9.71s-4.42,9.71-9.71,9.71Z"/><path class="cls-2" d="m132.61,47.07c.49,3.2.74,6.51.74,9.71,0,42.03-34.17,76.32-76.44,76.32-3.93,0-7.99-.37-11.8-.98v237.8h74.6l22.12-113.43c-6.64-14.5-10.45-30.48-10.45-47.44,0-32.69,13.89-62.06,35.89-82.95l15.36-78.9-50.02-.12h0Zm-49.04,293.11c-5.28,0-9.71-4.3-9.71-9.71v-159.77c0-5.28,4.3-9.71,9.71-9.71s9.71,4.3,9.71,9.71v159.77c0,5.41-4.3,9.71-9.71,9.71Z"/><path class="cls-1" d="m334.03,389.34v50.26h96.84c8.23,0,14.87-6.64,14.87-14.87v-35.27l-111.71-.12h0Z"/><path class="cls-1" d="m45.1,389.34v15.48h112.45c5.28,0,9.71,4.3,9.71,9.71s-4.3,9.71-9.71,9.71H45.1v.49c0,8.23,6.64,14.87,14.87,14.87h254.64v-50.26H45.1Z"/><path class="cls-1" d="m375.08,12.29h46.09v15.48h-46.09v-15.48h0Z"/><path class="cls-1" d="m111.47,40.19C104.09,16.22,82.22,0,56.9,0,25.44,0,0,25.56,0,56.9c0,24.33,15.48,46.09,38.47,53.83,5.9,2.09,12.04,3.07,18.43,3.07,31.46,0,57.02-25.56,57.02-56.9,0-5.53-.86-11.18-2.46-16.71Zm-54.57-4.42c-11.68,0-21.02,9.46-21.02,21.02,0,5.28-4.3,9.71-9.71,9.71s-9.71-4.3-9.71-9.71c0-22.24,18.19-40.43,40.43-40.43,5.28,0,9.71,4.3,9.71,9.71,0,5.41-4.3,9.71-9.71,9.71Z"/><path class="cls-1" d="m245.55,154.97c-29.74,0-53.95,24.21-53.95,53.95s24.21,53.95,53.95,53.95,53.95-24.21,53.95-53.95-24.33-53.95-53.95-53.95Zm0,0c-29.74,0-53.95,24.21-53.95,53.95s24.21,53.95,53.95,53.95,53.95-24.21,53.95-53.95-24.33-53.95-53.95-53.95Z"/><path class="cls-1" d="m323.59,257.59c9.34-14.62,14.13-31.46,14.13-48.91,0-50.63-41.17-91.8-91.8-91.8s-91.8,41.17-91.8,91.8,41.17,91.8,91.8,91.8c17.57,0,34.29-4.92,48.91-14.13l52.72,52.72,19.91,19.91,3.07-3.07,25.69-25.69-72.63-72.63Zm44,77.18l-70.79-70.67-7.37,5.28c-12.78,9.09-27.77,14.01-43.51,14.01-41.29,0-74.72-33.55-74.72-74.72s33.55-74.72,74.72-74.72,74.72,33.55,74.72,74.72c0,15.73-4.92,30.72-14.01,43.51l-5.28,7.37,70.67,70.67-4.42,4.55Z"/></g></g></svg>